<mxfile host="app.diagrams.net" agent="Mozilla/5.0 (Windows NT 10.0; Win64; x64) AppleWebKit/537.36 (KHTML, like Gecko) Chrome/141.0.0.0 Safari/537.36" version="28.2.8">
  <diagram name="Page-1" id="BOgb2yeXGjaKw8uL1MBH">
    <mxGraphModel dx="1358" dy="751" grid="1" gridSize="10" guides="1" tooltips="1" connect="1" arrows="1" fold="1" page="1" pageScale="1" pageWidth="850" pageHeight="1100" math="0" shadow="0">
      <root>
        <mxCell id="0" />
        <mxCell id="1" parent="0" />
        <mxCell id="USaXI382ov4VCFaaFqeK-18" style="edgeStyle=orthogonalEdgeStyle;rounded=0;orthogonalLoop=1;jettySize=auto;html=1;entryX=0;entryY=0.5;entryDx=0;entryDy=0;" edge="1" parent="1" source="USaXI382ov4VCFaaFqeK-1" target="USaXI382ov4VCFaaFqeK-4">
          <mxGeometry relative="1" as="geometry" />
        </mxCell>
        <mxCell id="USaXI382ov4VCFaaFqeK-1" value="User" style="shape=umlActor;verticalLabelPosition=bottom;verticalAlign=top;html=1;outlineConnect=0;" vertex="1" parent="1">
          <mxGeometry x="80" y="300" width="30" height="60" as="geometry" />
        </mxCell>
        <mxCell id="USaXI382ov4VCFaaFqeK-2" value="" style="whiteSpace=wrap;html=1;aspect=fixed;" vertex="1" parent="1">
          <mxGeometry x="220" y="140" width="430" height="430" as="geometry" />
        </mxCell>
        <mxCell id="USaXI382ov4VCFaaFqeK-3" value="Cinema System" style="text;html=1;whiteSpace=wrap;strokeColor=none;fillColor=none;align=center;verticalAlign=middle;rounded=0;" vertex="1" parent="1">
          <mxGeometry x="380" y="150" width="110" height="30" as="geometry" />
        </mxCell>
        <mxCell id="USaXI382ov4VCFaaFqeK-4" value="xem chi tiết phim" style="ellipse;whiteSpace=wrap;html=1;" vertex="1" parent="1">
          <mxGeometry x="240" y="290" width="120" height="80" as="geometry" />
        </mxCell>
        <mxCell id="USaXI382ov4VCFaaFqeK-5" value="Xem bình luận" style="ellipse;whiteSpace=wrap;html=1;" vertex="1" parent="1">
          <mxGeometry x="450" y="410" width="120" height="80" as="geometry" />
        </mxCell>
        <mxCell id="USaXI382ov4VCFaaFqeK-6" value="Xem trailer" style="ellipse;whiteSpace=wrap;html=1;" vertex="1" parent="1">
          <mxGeometry x="450" y="220" width="120" height="80" as="geometry" />
        </mxCell>
        <mxCell id="USaXI382ov4VCFaaFqeK-22" value="&amp;nbsp;&amp;lt;&amp;lt;include&amp;gt;&amp;gt;" style="endArrow=open;endSize=12;dashed=1;html=1;rounded=0;exitX=1;exitY=0.5;exitDx=0;exitDy=0;entryX=0.06;entryY=0.72;entryDx=0;entryDy=0;entryPerimeter=0;" edge="1" parent="1" source="USaXI382ov4VCFaaFqeK-4" target="USaXI382ov4VCFaaFqeK-6">
          <mxGeometry width="160" relative="1" as="geometry">
            <mxPoint x="380" y="329.52" as="sourcePoint" />
            <mxPoint x="540" y="329.52" as="targetPoint" />
          </mxGeometry>
        </mxCell>
        <mxCell id="USaXI382ov4VCFaaFqeK-24" value="&amp;nbsp;&amp;lt;&amp;lt;include&amp;gt;&amp;gt;" style="endArrow=open;endSize=12;dashed=1;html=1;rounded=0;entryX=0.037;entryY=0.38;entryDx=0;entryDy=0;entryPerimeter=0;exitX=1;exitY=0.5;exitDx=0;exitDy=0;" edge="1" parent="1" source="USaXI382ov4VCFaaFqeK-4" target="USaXI382ov4VCFaaFqeK-5">
          <mxGeometry width="160" relative="1" as="geometry">
            <mxPoint x="490" y="359.99818181818154" as="sourcePoint" />
            <mxPoint x="407" y="369.43" as="targetPoint" />
          </mxGeometry>
        </mxCell>
      </root>
    </mxGraphModel>
  </diagram>
</mxfile>
